<svg id="outline" height="512" viewBox="0 0 64 64" width="512" xmlns="http://www.w3.org/2000/svg"><path d="m52.617 11.383c-4.263-4.264-8.871-7.692-12.974-9.654-4.417-2.112-7.839-2.283-9.638-.483-9.464 9.464-12.174 22.412-12.285 27.938-.014.73-.221 1.449-.598 2.078l-.754 1.258c-1.704 2.839-1.993 6.185-.995 9.164l-6.951 6.952c-.453.453-1.113.608-1.637.394-2.139-.892-4.573-.177-5.913 1.738-1.168 1.66-1.163 3.967.009 5.603.986 1.401 2.601 2.201 4.285 2.101.139.004.224.047.27.093.047.048.102.133.094.278-.085 1.694.7 3.294 2.093 4.272.826.59 1.818.885 2.812.885.985 0 1.971-.29 2.796-.871 1.918-1.342 2.634-3.773 1.743-5.909-.218-.529-.061-1.188.391-1.641l6.954-6.954c1.129.378 2.307.582 3.494.582 1.946 0 3.906-.517 5.669-1.574l1.257-.755c.628-.377 1.347-.584 2.079-.599 5.524-.11 18.473-2.819 27.938-12.285 1.8-1.8 1.628-5.222-.484-9.638-1.963-4.102-5.392-8.71-9.655-12.973zm-38.666 42.782c-1.032 1.031-1.356 2.529-.824 3.82.528 1.266.1 2.706-1.044 3.507-.96.678-2.345.676-3.301-.01-.835-.587-1.304-1.537-1.254-2.536.038-.675-.209-1.331-.677-1.799s-1.131-.707-1.791-.675c-1.015.061-1.954-.418-2.547-1.261-.679-.948-.681-2.333-.003-3.296.798-1.142 2.238-1.572 3.51-1.04 1.285.531 2.783.206 3.815-.826l6.41-6.411c.479.839 1.07 1.627 1.779 2.337.71.71 1.502 1.296 2.341 1.775zm20.826-9.886c-1.08.022-2.141.328-3.067.884l-1.257.755c-3.554 2.132-8.084 1.573-11.014-1.356-2.93-2.931-3.488-7.46-1.355-11.014l.755-1.259c.556-.928.861-1.988.883-3.066.003-.139.37-12.84 9.07-23.629.545 5.063 5.485 12.394 11.353 18.262 4.263 4.264 8.871 7.692 12.974 9.654 2.014.964 3.805 1.498 5.346 1.651-10.804 8.747-23.548 9.116-23.688 9.118zm19.203-12.572c-3.904-1.867-8.315-5.157-12.423-9.265-8.816-8.816-12.418-17.502-10.138-19.783.44-.44 1.132-.657 2.022-.657 1.375 0 3.221.518 5.338 1.53 3.904 1.867 8.316 5.157 12.423 9.265s7.397 8.519 9.264 12.423c1.668 3.488 1.995 6.239.874 7.36-1.119 1.121-3.871.795-7.36-.873z"/><path d="m40.678 27.142c-.407-.374-1.04-.348-1.413.058-.375.406-.349 1.039.058 1.413 2.001 1.844 4.054 3.51 6.102 4.953.175.123.376.183.575.183.314 0 .624-.147.818-.424.318-.451.21-1.075-.241-1.394-1.977-1.393-3.962-3.004-5.899-4.789z"/><path d="m52.255 35.315c-.891-.426-1.814-.923-2.744-1.476-.477-.285-1.088-.127-1.371.349-.282.475-.126 1.088.348 1.37.981.584 1.958 1.108 2.903 1.562.139.066.286.098.431.098.373 0 .73-.209.902-.568.24-.499.029-1.095-.469-1.335z"/><path d="m23.953 28.307c-.553-.027-1.008.428-1.02.98-.032 1.638-.497 3.248-1.341 4.656-.284.474-.131 1.088.343 1.372.161.097.338.143.514.143.34 0 .671-.173.858-.485 1.024-1.707 1.587-3.659 1.626-5.646.011-.553-.428-1.01-.98-1.02z"/><path d="m27.445 15.757c-.51-.22-1.097.014-1.314.522-1.512 3.508-2.292 6.665-2.681 8.695-.104.543.251 1.066.794 1.171.063.012.127.018.189.018.47 0 .89-.333.981-.812.37-1.934 1.114-4.938 2.554-8.281.218-.507-.016-1.095-.523-1.313z"/><path d="m48.931 15.069c-1.551-1.551-3.224-2.814-4.71-3.558-2.319-1.16-3.497-.71-4.077-.129-.581.58-1.03 1.759.129 4.077.743 1.486 2.006 3.159 3.558 4.71 2.305 2.305 5.215 4.275 7.236 4.275.612 0 1.143-.182 1.551-.589.581-.58 1.03-1.759-.129-4.077-.744-1.485-2.007-3.158-3.558-4.709zm2.267 7.369c-.489.169-2.932-.66-5.954-3.682-3.076-3.076-3.883-5.556-3.706-5.943.042-.021.103-.032.183-.032.733 0 3.021.929 5.796 3.703 3.02 3.02 3.853 5.464 3.681 5.954z"/></svg>