<svg height="496pt" viewBox="0 -70 496 496" width="496pt" xmlns="http://www.w3.org/2000/svg"><path d="m146.71875 93.335938-11.917969-10.671876c-3.730469 4.167969-7.28125 8.59375-10.542969 13.167969l13.015626 9.304688c2.917968-4.097657 6.101562-8.066407 9.445312-11.800781zm0 0"/><path d="m117.496094 145.671875-15.34375-4.503906c-1.578125 5.34375-2.871094 10.878906-3.847656 16.433593l15.75 2.789063c.875-4.984375 2.035156-9.925781 3.441406-14.71875zm0 0"/><path d="m129.175781 117.886719-13.96875-7.808594c-2.75 4.914063-5.230469 10.027344-7.398437 15.179687l14.75 6.183594c1.9375-4.601562 4.160156-9.160156 6.617187-13.554687zm0 0"/><path d="m361.039062 108.457031 13.28125-8.914062c-28.367187-42.296875-75.585937-67.542969-126.320312-67.542969v16c45.390625 0 87.640625 22.601562 113.039062 60.457031zm0 0"/><path d="m376.230469 138.671875 15.082031-5.34375c-2.039062-5.753906-4.457031-11.441406-7.175781-16.902344l-14.3125 7.148438c2.421875 4.875 4.589843 9.953125 6.40625 15.097656zm0 0"/><path d="m383.167969 168.878906 15.902343-1.765625c-.628906-5.671875-1.589843-11.359375-2.855468-16.898437l-15.589844 3.5625c1.117188 4.949218 1.976562 10.03125 2.542969 15.101562zm0 0"/><path d="m358.65625 295.390625 2.6875 15.777344c45.59375-7.777344 71.433594-18.367188 82.769531-24l-7.113281-14.335938c-10.550781 5.238281-34.769531 15.136719-78.34375 22.558594zm0 0"/><path d="m335.007812 298.878906 1.984376 15.875c5.59375-.699218 11.007812-1.457031 16.230468-2.265625l-2.453125-15.816406c-5.066406.792969-10.320312 1.519531-15.761719 2.207031zm0 0"/><path d="m432 217.34375v-33.34375c0-101.457031-82.535156-184-184-184-98.777344 0-179.59375 78.246094-183.800781 176-17.757813.023438-32.199219 14.472656-32.199219 32.230469v2.042969c0 4.984374 1.175781 9.972656 3.40625 14.414062l1.929688 3.855469c-24.695313 12.601562-37.335938 27.175781-37.335938 43.457031 0 17.832031 15.59375 34.015625 45.246094 47.3125l-2.261719 2.207031 57.457031 34.472657 5.910156-17.726563c14.351563 3.09375 29.726563 5.710937 45.90625 7.796875l3.308594 9.929688 13.355469-8.007813c25.382813 2.632813 51.933594 4.015625 79.078125 4.015625 120.222656 0 248-28.039062 248-80 0-21.335938-22.136719-40.167969-64-54.65625zm-267.558594 114.664062-17.554687-52.65625 40.105469 39.128907zm-20.441406-100.007812c0 8.824219-7.175781 16-16 16s-16-7.175781-16-16 7.175781-16 16-16 16 7.175781 16 16zm10.824219-17.335938 27.503906-19.640624c2.777344-1.976563 6.03125-3.023438 9.441406-3.023438 8.949219 0 16.230469 7.28125 16.230469 16.230469v2.042969c0 2.503906-.59375 5.015624-1.71875 7.261718l-7.226562 14.464844 7.234374 14.472656c1.117188 2.230469 1.710938 4.734375 1.710938 7.246094v2.050781c0 8.949219-7.28125 16.230469-16.230469 16.230469-3.410156 0-6.664062-1.046875-9.441406-3.023438l-27.503906-19.640624c3.246093-5.007813 5.175781-10.945313 5.175781-17.335938s-1.929688-12.328125-5.175781-17.335938zm65.769531 24.648438-.195312-.382812c9.457031.628906 18.761718 1.070312 27.601562 1.070312 71.414062 0 141.710938-20.335938 168-28.839844v31.136719c-20.113281 6.6875-94.566406 29.703125-168 29.703125-8.929688 0-18.335938-.464844-27.929688-1.144531 2.425782-4.519531 3.929688-9.609375 3.929688-15.085938v-2.050781c0-4.992188-1.175781-9.976562-3.40625-14.40625zm27.40625-223.3125c92.632812 0 168 75.359375 168 168v10.289062c-20.03125 6.671876-94.503906 29.710938-168 29.710938-8.566406 0-17.59375-.433594-26.777344-1.054688 1.722656-4 2.777344-8.304687 2.777344-12.664062v-2.042969c0-17.773437-14.464844-32.238281-32.230469-32.238281-6.761719 0-13.234375 2.070312-18.738281 6l-30.390625 21.710938c-4.410156-2.296876-9.335937-3.710938-14.640625-3.710938s-10.230469 1.414062-14.640625 3.710938l-30.390625-21.710938c-.890625-.632812-1.839844-1.144531-2.785156-1.679688 1.984375-90.929687 76.425781-164.320312 167.816406-164.320312zm-200 192.230469c0-8.949219 7.28125-16.230469 16.230469-16.230469 3.410156 0 6.664062 1.046875 9.441406 3.023438l27.503906 19.640624c-3.246093 5.007813-5.175781 10.945313-5.175781 17.335938s1.929688 12.328125 5.175781 17.328125l-27.503906 19.648437c-2.777344 1.976563-6.03125 3.023438-9.441406 3.023438-8.949219 0-16.230469-7.28125-16.230469-16.230469v-2.050781c0-2.503906.59375-5.015625 1.71875-7.261719l7.226562-14.457031-7.234374-14.472656c-1.117188-2.230469-1.710938-4.742188-1.710938-7.246094zm-32 63.769531c0-7.191406 5.800781-14.769531 16.449219-22.089844-.152344 1.273438-.449219 2.53125-.449219 3.808594v2.050781c0 17.765625 14.464844 32.230469 32.230469 32.230469 6.761719 0 13.242187-2.078125 18.738281-6l1.960938-1.398438-27.265626 26.597657c-26.542968-10.824219-41.664062-23.421875-41.664062-35.199219zm53.015625 46.480469 40.105469-39.128907-17.554688 52.65625zm42.417969 4.511719 16.566406-49.695313 18.625 55.878906c-12.3125-1.742187-24.058594-3.824219-35.191406-6.183593zm136.566406 13.007812c-18.953125 0-37.566406-.71875-55.726562-2.03125l20.742187-12.449219-41.960937-40.933593 1.976562 1.40625c5.488281 3.929687 11.976562 6.007812 18.738281 6.007812 4.308594 0 8.414063-.878906 12.183594-2.425781 15.277344 1.570312 30.117187 2.425781 44.046875 2.425781 88.390625 0 175.089844-31.160156 178.734375-32.480469l5.265625-1.917969v-19.265624c30.246094 11.265624 48 25.03125 48 37.664062 0 30.273438-95.28125 64-232 64zm0 0"/></svg>