<?xml version="1.0" encoding="UTF-8"?>
<svg xmlns="http://www.w3.org/2000/svg" viewBox="0 0 64 64" width="512" height="512"><g id="Rice_cooker-Pot-Tableware-Kitchen-Multicooker" data-name="Rice cooker-Pot-Tableware-Kitchen-Multicooker"><path d="M36,50a4,4,0,1,0-4,4A4,4,0,0,0,36,50Zm-4,2a2,2,0,1,1,2-2A2,2,0,0,1,32,52Z"/><path d="M46.95,8.16A7.021,7.021,0,0,0,40,2H24a7,7,0,0,0-6.94,6.16A13.013,13.013,0,0,0,6,21V49A13.012,13.012,0,0,0,19,62H45A13.012,13.012,0,0,0,58,49V21A13.013,13.013,0,0,0,46.95,8.16ZM24,4H40a4.962,4.962,0,0,1,3.54,1.47A4.821,4.821,0,0,1,44.89,8H19.1A5.017,5.017,0,0,1,24,4Zm-5,6H45A11.011,11.011,0,0,1,55.95,20H8.05A11.011,11.011,0,0,1,19,10ZM56,49A11.007,11.007,0,0,1,45,60H19A11.007,11.007,0,0,1,8,49V22H56Z"/><path d="M35,36H29a5.006,5.006,0,0,0-5,5V53a5.006,5.006,0,0,0,5,5,1,1,0,0,0,0-2,3,3,0,0,1-3-3V41a3,3,0,0,1,3-3h6a3,3,0,0,1,3,3V53a3,3,0,0,1-3,3,1,1,0,0,0,0,2,5.006,5.006,0,0,0,5-5V41A5.006,5.006,0,0,0,35,36Z"/></g></svg>
